<?xml version="1.0" encoding="UTF-8" standalone="no"?><!DOCTYPE svg PUBLIC "-//W3C//DTD SVG 1.1//EN" "http://www.w3.org/Graphics/SVG/1.1/DTD/svg11.dtd"><svg width="100%" height="100%" viewBox="0 0 63 64" version="1.1" xmlns="http://www.w3.org/2000/svg" xmlns:xlink="http://www.w3.org/1999/xlink" xml:space="preserve" xmlns:serif="http://www.serif.com/" style="fill-rule:evenodd;clip-rule:evenodd;stroke-linejoin:round;stroke-miterlimit:2;"><path d="M0.143,27.58c1.817,-16.861 14.103,-27.58 31.118,-27.58c14.316,0 25.241,7.438 29.542,19.669l-7.023,0.008c-3.463,-8.782 -11.198,-13.276 -22.518,-13.276c-14.221,0 -22.717,7.176 -24.171,21.114l-6.947,0.066Zm62.36,-0.528c0.194,1.594 0.294,3.245 0.294,4.947c0,19.386 -12.893,32 -31.536,32c-17.565,0 -30.09,-11.423 -31.261,-29.234l6.945,-0.066c0.898,15.11 9.499,22.9 24.316,22.9c15.768,0 24.58,-8.719 24.58,-25.6c0,-1.733 -0.093,-3.38 -0.277,-4.94l6.94,-0.007Z" style="fill:#cca43b;"/><path d="M17.666,17.427l0,-3.503l27.465,0l0,3.507l-18.098,0l0,-0.004l-9.367,0Zm9.367,12.738l17.289,0l0,3.453l-22.825,0l0,12.95l23.634,0l0,3.507l-27.465,0l0,-19.908l9.367,0l0,-0.003Z"/><path d="M6.836,29.742c-0.047,0.628 -0.037,2.959 0.009,3.497l-4.003,-0.022l3.994,-3.475Z" style="fill:#cca43b;"/><path d="M57.79,21.026c-0.704,0.016 -3.18,0.022 -3.743,0.022l1.135,3.641l2.608,-3.663Z" style="fill:#cca43b;"/></svg>