<?xml version="1.0" encoding="UTF-8" standalone="no"?><!DOCTYPE svg PUBLIC "-//W3C//DTD SVG 1.1//EN" "http://www.w3.org/Graphics/SVG/1.1/DTD/svg11.dtd"><svg width="100%" height="100%" viewBox="0 0 512 512" version="1.1" xmlns="http://www.w3.org/2000/svg" xmlns:xlink="http://www.w3.org/1999/xlink" xml:space="preserve" xmlns:serif="http://www.serif.com/" style="fill-rule:evenodd;clip-rule:evenodd;stroke-linejoin:round;stroke-miterlimit:2;"><path d="M16.814,222.177c13.905,-129.031 107.924,-211.06 238.132,-211.06c109.556,0 193.163,56.922 226.072,150.518l-53.748,0.058c-26.499,-67.207 -85.691,-101.599 -172.324,-101.599c-108.831,0 -173.844,54.919 -184.968,161.576l-53.164,0.507Zm477.22,-4.038c1.485,12.2 2.247,24.831 2.247,37.861c0,148.35 -98.663,244.884 -241.334,244.884c-134.417,0 -230.267,-87.418 -239.228,-223.718l53.147,-0.507c6.869,115.633 72.692,175.248 186.081,175.248c120.667,0 188.099,-66.722 188.099,-195.907c0,-13.261 -0.711,-25.864 -2.116,-37.804l53.105,-0.057Z" style="fill:#cca43b;"/><path d="M150.91,144.48l0,-26.811l210.181,0l0,26.84l-138.498,0l0,-0.029l-71.683,0Zm71.683,97.481l132.304,0l0,26.427l-174.669,0l0,99.103l180.863,0l0,26.84l-210.181,0l0,-152.35l71.683,0l0,-0.021Z" style="fill:#fff;"/><path d="M68.029,238.719c-0.361,4.804 -0.284,22.647 0.066,26.764l-30.634,-0.17l30.568,-26.594Z" style="fill:#cca43b;"/><path d="M457.961,172.019c-5.39,0.12 -24.337,0.169 -28.646,0.167l8.689,27.865l19.958,-28.031Z" style="fill:#cca43b;"/></svg>