<?xml version="1.0" encoding="UTF-8" standalone="no"?><!DOCTYPE svg PUBLIC "-//W3C//DTD SVG 1.1//EN" "http://www.w3.org/Graphics/SVG/1.1/DTD/svg11.dtd"><svg width="100%" height="100%" viewBox="0 0 400 225" version="1.1" xmlns="http://www.w3.org/2000/svg" xmlns:xlink="http://www.w3.org/1999/xlink" xml:space="preserve" xmlns:serif="http://www.serif.com/" style="fill-rule:evenodd;clip-rule:evenodd;stroke-linejoin:round;stroke-miterlimit:2;"><path d="M131.71,96.818c3.567,-33.096 27.682,-54.137 61.081,-54.137c28.101,0 49.546,14.6 57.987,38.608l-13.786,0.015c-6.797,-17.239 -21.98,-26.06 -44.201,-26.06c-27.915,0 -44.591,14.087 -47.444,41.444l-13.637,0.13Zm122.407,-1.036c0.381,3.129 0.576,6.369 0.576,9.711c0,38.052 -25.307,62.813 -61.902,62.813c-34.478,0 -59.063,-22.423 -61.362,-57.384l13.632,-0.13c1.762,29.66 18.646,44.951 47.73,44.951c30.951,0 48.247,-17.114 48.247,-50.25c0,-3.401 -0.182,-6.634 -0.543,-9.697l13.622,-0.015Z" style="fill:#cca43b;"/><path d="M291.807,168.307l0,-84.562l-0.375,-21l0.938,0l15.75,21.188l65.438,84.375l14.625,0l0,-125.625l-13.312,0l0,85.688l0.375,20.625l-1.125,0l-15.188,-21l-65.812,-85.312l-14.625,0l0,125.625l13.312,0Z" style="fill-rule:nonzero;"/><path d="M14.643,54.856l0,-12.174l95.438,0l0,12.188l-62.888,0l0,-0.013l-32.549,0Zm32.549,44.263l60.076,0l0,12l-79.312,0l0,45l82.125,0l0,12.187l-95.438,0l0,-69.178l32.549,0l0,-0.009Z"/><path d="M144.846,101.062c-0.093,1.232 -0.073,5.809 0.017,6.865l-7.858,-0.044l7.841,-6.821Z" style="fill:#cca43b;"/><path d="M244.864,83.953c-1.383,0.031 -6.242,0.043 -7.348,0.043l2.229,7.147l5.119,-7.19Z" style="fill:#cca43b;"/></svg>