<?xml version="1.0" encoding="UTF-8" standalone="no"?><!DOCTYPE svg PUBLIC "-//W3C//DTD SVG 1.1//EN" "http://www.w3.org/Graphics/SVG/1.1/DTD/svg11.dtd"><svg width="100%" height="100%" viewBox="0 0 1200 400" version="1.1" xmlns="http://www.w3.org/2000/svg" xmlns:xlink="http://www.w3.org/1999/xlink" xml:space="preserve" xmlns:serif="http://www.serif.com/" style="fill-rule:evenodd;clip-rule:evenodd;stroke-linecap:round;stroke-linejoin:round;stroke-miterlimit:1.5;"><g id="Clarity"><path d="M167.95,309.619c-59.218,-1.499 -106.833,-50.043 -106.833,-109.619c0,-59.577 47.615,-108.12 106.833,-109.619l0,6.643c-55.553,1.497 -100.192,47.065 -100.192,102.976c0,55.911 44.639,101.479 100.192,102.976l0,6.643Zm5.645,-219.239c59.218,1.499 106.833,50.043 106.833,109.619c0,59.577 -47.615,108.12 -106.833,109.619l-0,-6.643c55.553,-1.497 100.192,-47.065 100.192,-102.976c0,-55.911 -44.639,-101.479 -100.192,-102.976l-0,-6.643Z" style="fill:#cca43b;"/><path d="M173.595,153.849c24.206,1.46 43.414,21.58 43.414,46.151c0,24.571 -19.208,44.691 -43.414,46.151l0,-2.806c22.66,-1.456 40.614,-20.321 40.614,-43.346c0,-23.025 -17.954,-41.889 -40.614,-43.346l-0,-2.806Z" style="fill:#cca43b;"/><path d="M173.595,122.022c41.76,1.488 75.206,35.858 75.206,77.978c0,42.12 -33.446,76.491 -75.206,77.978l-0,-4.729c39.151,-1.485 70.481,-33.738 70.481,-73.25c0,-39.512 -31.329,-71.764 -70.481,-73.25l0,-4.729Z" style="fill:#cca43b;"/><path d="M173.595,136.44c34.039,1.213 61.301,29.228 61.301,63.56c0,34.332 -27.262,62.347 -61.301,63.56l-0,-3.854c31.912,-1.211 57.449,-27.499 57.449,-59.706c0,-32.206 -25.537,-58.495 -57.449,-59.706l0,-3.854Z" style="fill:#cca43b;"/><path d="M167.772,284.518c-44.712,-1.281 -80.776,-37.344 -82.057,-82.057l6.373,-0c1.277,41.196 34.487,74.407 75.683,75.683l0,6.373Zm0,-162.662c-41.196,1.277 -74.407,34.487 -75.683,75.683l-6.373,0c1.281,-44.712 37.344,-80.776 82.057,-82.057l0,6.373Z" style="fill:#cca43b;"/><path d="M173.595,105.204c50.149,1.437 90.599,41.886 92.035,92.035l-7.148,0c-1.432,-46.206 -38.681,-83.455 -84.887,-84.887l-0,-7.148Zm0,182.443c46.206,-1.432 83.455,-38.681 84.887,-84.887l7.148,-0c-1.437,50.149 -41.886,90.599 -92.035,92.035l-0,-7.148Z" style="fill:#cca43b;"/><path d="M169.762,193.823l0,-93.906l1.01,0l-0,95.532l-1.01,-1.626Zm1.01,12.353l0,93.906l-1.01,0l-0,-95.532l1.01,1.626Z" style="fill:#cca43b;"/></g><g><path d="M344.723,191.332c4.22,-56.749 49.528,-102.133 106.244,-106.471l0,7.016c-52.854,4.307 -95.041,46.569 -99.23,99.456l-7.014,-0Zm223.302,0c-4.189,-52.887 -46.376,-95.149 -99.23,-99.456l0,-7.016c56.716,4.338 102.025,49.722 106.244,106.471l-7.014,0Zm7.014,17.337c-4.22,56.749 -49.528,102.133 -106.244,106.471l0,-7.016c52.854,-4.307 95.041,-46.569 99.23,-99.456l7.014,-0Zm-223.302,0c4.189,52.887 46.376,95.149 99.23,99.456l-0,7.016c-56.716,-4.338 -102.025,-49.722 -106.244,-106.471l7.014,0Z" style="fill:#cca43b;"/><path d="M405.473,250.613c-10.501,-11.282 -17.539,-25.83 -19.414,-41.944l4.534,-0c1.838,14.812 8.322,28.192 17.947,38.633l-3.067,3.311Zm4.261,-99.178c-10.283,10.615 -17.229,24.48 -19.142,39.897l-4.534,0c1.953,-16.786 9.509,-31.872 20.746,-43.338l2.93,3.441Zm-0.501,-5.81c11.335,-10.564 25.972,-17.629 42.183,-19.471l0,4.532c-14.91,1.805 -28.378,8.318 -38.872,18.005l-3.311,-3.067Zm100.104,5.107c-10.77,-10.811 -25.058,-18.116 -40.992,-20.045l-0,-4.532c17.304,1.965 32.813,9.882 44.428,21.652l-3.436,2.926Zm5.766,-0.455c10.051,11.153 16.774,25.362 18.601,41.056l-4.534,0c-1.786,-14.393 -7.959,-27.434 -17.138,-37.74l3.071,-3.316Zm-5.882,99.109c10.726,-10.716 17.987,-24.9 19.949,-40.717l4.534,-0c-2,17.186 -9.873,32.592 -21.557,44.153l-2.926,-3.437Zm0.349,5.869c-11.196,10.076 -25.466,16.802 -41.224,18.592l-0,-4.532c14.457,-1.75 27.559,-7.926 37.908,-17.131l3.316,3.071Zm-98.182,-5.038c10.652,10.29 24.565,17.225 40.029,19.097l0,4.532c-16.832,-1.912 -31.967,-9.456 -43.471,-20.699l3.442,-2.93Z" style="fill:#cca43b;"/><path d="M421.278,233.548c-6.016,-6.915 -10.206,-15.459 -11.817,-24.879l3.146,-0c1.556,8.527 5.366,16.272 10.788,22.593l-2.118,2.286Zm2.66,-65.431c-5.711,6.432 -9.723,14.406 -11.33,23.214l-3.146,0c1.667,-9.747 6.095,-18.557 12.45,-25.594l2.026,2.38Zm2.359,-6.689c6.971,-6.076 15.603,-10.295 25.12,-11.883l0,3.144c-8.624,1.535 -16.455,5.374 -22.834,10.856l-2.286,-2.117Zm66.395,3.474c-6.635,-6.206 -15.028,-10.554 -24.347,-12.213l0,-3.144c10.259,1.711 19.489,6.48 26.719,13.337l-2.373,2.02Zm6.575,2.471c5.596,6.747 9.494,14.952 11.034,23.958l-3.146,-0c-1.481,-8.114 -5.002,-15.519 -10.011,-21.664l2.124,-2.293Zm-4.22,65.363c6.124,-6.575 10.428,-14.866 12.108,-24.069l3.146,0c-1.734,10.143 -6.459,19.27 -13.233,26.442l-2.02,-2.373Zm-2.577,6.68c-6.79,5.622 -15.055,9.524 -24.124,11.037l-0,-3.144c8.177,-1.456 15.642,-4.982 21.831,-10.018l2.294,2.124Zm-64.396,-3.407c6.469,5.719 14.488,9.724 23.343,11.3l0,3.144c-9.794,-1.634 -18.649,-6.054 -25.723,-12.417l2.381,-2.027Z" style="fill:#cca43b;"/><path d="M439.927,215.609c1.118,-1.207 1.604,-2.868 1.313,-4.487c-0.291,-1.619 -1.324,-3.007 -2.792,-3.75c-3.569,-1.654 -7.485,-2.72 -11.626,-2.966l-74.355,-4.407l73.208,-4.339c5.022,-0.298 9.728,-1.753 13.853,-4.105c1.002,-0.593 1.691,-1.599 1.883,-2.748c0.192,-1.149 -0.133,-2.324 -0.888,-3.21c0.032,-0.028 0.032,-0.028 0.032,-0.028l-42.225,-49.596l46.317,44.493c0,0 0.07,0.066 0.07,0.066c0.994,0.914 2.349,1.328 3.684,1.126c1.335,-0.201 2.507,-0.997 3.188,-2.163c2.241,-4.111 3.66,-8.753 3.953,-13.702l4.339,-73.208l4.435,74.822c0.258,4.353 1.439,8.454 3.351,12.109c0.775,1.429 2.153,2.433 3.752,2.731c1.598,0.298 3.246,-0.141 4.484,-1.195c0.058,0.068 0.058,0.068 0.058,0.068l47.865,-41.712l-44.226,47.236c-0,0 -0,0 -0,0c-0.772,0.833 -1.113,1.977 -0.924,3.097c0.189,1.12 0.888,2.088 1.891,2.622c3.618,1.809 7.641,2.948 11.907,3.201l74.822,4.435l-74.133,4.394c-4.546,0.269 -8.824,1.52 -12.625,3.544c-1.409,0.779 -2.395,2.149 -2.684,3.733c-0.289,1.584 0.149,3.214 1.193,4.44c-0.065,0.055 -0.064,0.055 -0.064,0.055l43.134,49.492l-47.505,-44.592c-0,-0 -0,-0 -0,-0c-1.16,-1.075 -2.766,-1.527 -4.317,-1.217c-1.551,0.311 -2.858,1.347 -3.515,2.786c-1.386,3.305 -2.281,6.883 -2.504,10.645l-4.394,74.133l-4.407,-74.355c-0.225,-3.8 -1.142,-7.411 -2.625,-10.708c-0.716,-1.543 -2.112,-2.664 -3.774,-3.028c-1.662,-0.364 -3.398,0.07 -4.694,1.172c-0.055,-0.063 -0.055,-0.062 -0.056,-0.062l-47.293,40.265l42.895,-45.089c0,-0 0,-0 0,-0Zm24.974,-19.423c-2.657,-2.771 -7.064,-2.863 -9.834,-0.206c-2.771,2.657 -2.863,7.064 -0.206,9.834c2.657,2.771 7.064,2.863 9.834,0.206c2.771,-2.657 2.863,-7.064 0.206,-9.834Z" style="fill:#cca43b;"/></g><g id="Legacy"><path d="M704.226,219.921l-15.491,9.196c-2.865,-0.75 -5.102,-2.989 -5.851,-5.854c-0.748,-2.866 2.837,-5.057 4.969,-7.113l64.582,-63.775l4.511,16.68l-52.72,50.866Zm21.986,5.756l127.11,33.278l-41.555,-145.538l-38.838,39.898l-2.795,-16.319l40.189,-42.377c1.467,-1.414 3.563,-1.961 5.534,-1.445c1.97,0.516 3.53,2.021 4.116,3.972l50.176,167.124c0.816,2.719 0.101,5.667 -1.87,7.71c-1.971,2.043 -4.892,2.862 -7.638,2.143l-140.158,-36.694l5.729,-11.752Z" style="fill:#cca43b;"/><path d="M692.653,230.143l-59.037,-15.456c-2.858,-0.748 -5.092,-2.978 -5.846,-5.835c-0.754,-2.857 0.089,-5.898 2.206,-7.959l124.02,-120.734c1.467,-1.428 3.574,-1.984 5.555,-1.466c1.98,0.518 3.545,2.036 4.124,3.999l43.076,147.475l-17.486,-4.578l-34.746,-127.16l-105.674,105.411l55.244,14.6l-11.437,11.702Zm33.423,-5.825l66.1,24.051l20.194,3.071c0.801,2.716 0.5,3.502 -1.472,5.535c-1.972,2.033 -4.885,2.847 -7.625,2.129l-88.806,-23.25l11.609,-11.536Z" style="fill:#cca43b;"/><path d="M809.413,247.918l16.239,63.619c0.755,2.708 0.004,5.613 -1.968,7.616c-1.972,2.003 -4.865,2.8 -7.584,2.088l-172.937,-45.276c-2.837,-0.743 -5.061,-2.946 -5.83,-5.776c-0.769,-2.83 -0.531,-7.058 1.54,-9.134l112.471,-107.092l0.813,19.23l-94.254,92.513l151.622,39.19l-16.491,-61.601l16.378,4.625Zm-20.223,-22.347l-18.462,-72.014l0.554,-2.116l-4.763,-13.687l1.959,-2.915c1.467,-1.472 2.286,-2.717 4.296,-2.19c2.01,0.526 5.884,-1.437 6.442,0.565l26.982,95.216l-17.008,-2.859Z" style="fill:#cca43b;"/><path d="M717.542,206.813l-28.128,-7.364c-2.633,-0.689 -4.686,-2.75 -5.367,-5.385c-0.681,-2.635 0.118,-5.432 2.088,-7.31l53.315,-50.832c1.57,-1.496 3.802,-2.073 5.9,-1.524c2.098,0.549 3.762,2.146 4.396,4.22l21.238,69.365c0.863,2.819 0.133,5.884 -1.909,8.011c-2.041,2.127 -5.074,2.982 -7.926,2.236l-18.38,-4.812l7.86,-8.436l3.847,-1.945l-14.483,-48.352l-34.901,34.794l23.862,6.607l-11.412,10.728Z" style="fill:#cca43b;"/><path d="M775.081,171.742l21.8,-20.784c1.57,-1.496 3.802,-2.073 5.9,-1.524c2.098,0.549 3.762,2.146 4.396,4.22l21.238,69.365c0.863,2.819 0.133,5.884 -1.909,8.011c-2.041,2.127 -5.074,2.982 -7.926,2.236l-71.736,-18.781c-2.633,-0.689 -3.641,-1.562 -4.321,-4.197c-0.681,-2.635 6.372,-2.951 8.342,-4.829l8.474,-20.242l5.484,14.179l-3.914,5.326l50.801,13.3l-14.483,-48.352l-17.781,17.161l-4.365,-15.087Z" style="fill:#cca43b;"/><path d="M775.717,244.006l9.371,26.658c0.838,2.895 0.083,6.057 -1.975,8.265c-2.058,2.207 -5.096,3.114 -7.939,2.37l-71.523,-18.725c-2.625,-0.687 -4.659,-2.791 -5.317,-5.498c-0.658,-2.707 0.165,-5.594 2.149,-7.544l24.474,-24.056l9.505,10.45l-16.673,16.476l50.65,13.261l-9.26,-25.545l16.539,3.89Zm-21.45,-27.579l-23.949,23.577l-10.061,-9.909l33.936,-33.357c1.581,-1.554 35.612,28.993 35.612,28.993l-35.537,-9.304Z" style="fill:#cca43b;"/></g><g id="Humanity"><path d="M999.251,96.011c49.396,0 89.5,40.104 89.5,89.5c0,49.396 -40.104,89.5 -89.5,89.5c-49.396,0 -89.5,-40.104 -89.5,-89.5c0,-49.396 40.104,-89.5 89.5,-89.5Zm0,8.805c-44.537,0 -80.695,36.158 -80.695,80.695c0,44.537 36.158,80.695 80.695,80.695c44.537,0 80.695,-36.158 80.695,-80.695c0,-44.537 -36.158,-80.695 -80.695,-80.695Z" style="fill:#cca43b;"/><path d="M1056.353,82.675c49.396,0 89.5,40.104 89.5,89.5c0,49.396 -40.104,89.5 -89.5,89.5c-49.396,0 -89.5,-40.104 -89.5,-89.5c0,-49.396 40.104,-89.5 89.5,-89.5Zm0,8.805c-44.537,0 -80.695,36.158 -80.695,80.695c0,44.537 36.158,80.695 80.695,80.695c44.537,0 80.695,-36.158 80.695,-80.695c0,-44.537 -36.158,-80.695 -80.695,-80.695Z" style="fill:#cca43b;"/><path d="M1037.547,138.324c49.396,0 89.5,40.104 89.5,89.5c0,49.396 -40.104,89.5 -89.5,89.5c-49.396,0 -89.5,-40.104 -89.5,-89.5c0,-49.396 40.104,-89.5 89.5,-89.5Zm0,8.805c-44.537,0 -80.695,36.158 -80.695,80.695c0,44.537 36.158,80.695 80.695,80.695c44.537,0 80.695,-36.158 80.695,-80.695c0,-44.537 -36.158,-80.695 -80.695,-80.695Z" style="fill:#cca43b;"/></g><path d="M70.495,36.436l380.198,0" style="fill:none;stroke:#cca43b;stroke-width:1.67px;"/><path d="M765.655,36.436l380.198,0" style="fill:none;stroke:#cca43b;stroke-width:1.67px;"/><g transform="matrix(1,0,0,1,4.638442,-12.48818)"><g><g transform="matrix(25,0,0,25,475.247525,57.993648)"><path d="M0.302,0.012c-0.054,0 -0.101,-0.009 -0.141,-0.026c-0.04,-0.017 -0.071,-0.042 -0.094,-0.073c-0.022,-0.032 -0.035,-0.07 -0.038,-0.114l0.11,0c0.002,0.026 0.011,0.048 0.026,0.066c0.015,0.017 0.034,0.03 0.058,0.039c0.024,0.008 0.05,0.013 0.078,0.013c0.031,0 0.059,-0.005 0.083,-0.015c0.024,-0.01 0.044,-0.024 0.057,-0.041c0.014,-0.018 0.021,-0.038 0.021,-0.062c0,-0.021 -0.006,-0.039 -0.018,-0.053c-0.012,-0.014 -0.029,-0.025 -0.05,-0.034c-0.021,-0.009 -0.044,-0.017 -0.07,-0.024l-0.085,-0.023c-0.059,-0.016 -0.105,-0.039 -0.139,-0.07c-0.034,-0.031 -0.051,-0.072 -0.051,-0.122c0,-0.042 0.011,-0.079 0.034,-0.11c0.023,-0.031 0.053,-0.056 0.092,-0.073c0.039,-0.017 0.083,-0.026 0.131,-0.026c0.049,0 0.093,0.009 0.131,0.026c0.038,0.017 0.067,0.041 0.089,0.071c0.022,0.03 0.033,0.065 0.034,0.103l-0.106,0c-0.004,-0.034 -0.019,-0.06 -0.047,-0.078c-0.027,-0.019 -0.062,-0.028 -0.104,-0.028c-0.029,0 -0.055,0.005 -0.077,0.014c-0.022,0.009 -0.039,0.022 -0.051,0.038c-0.012,0.016 -0.018,0.035 -0.018,0.056c0,0.023 0.007,0.041 0.021,0.056c0.014,0.014 0.031,0.026 0.052,0.034c0.02,0.008 0.04,0.015 0.059,0.02l0.071,0.019c0.023,0.006 0.047,0.014 0.071,0.023c0.024,0.01 0.047,0.023 0.068,0.038c0.021,0.016 0.038,0.035 0.051,0.059c0.013,0.023 0.019,0.051 0.019,0.084c0,0.041 -0.011,0.077 -0.032,0.109c-0.021,0.032 -0.052,0.057 -0.092,0.076c-0.04,0.018 -0.089,0.028 -0.146,0.028Z" style="fill:#cca43b;fill-rule:nonzero;"/></g><g transform="matrix(25,0,0,25,490.27438,57.993648)"><path d="M0.002,-0.728l0.125,0l0.19,0.331l0.008,0l0.189,-0.331l0.125,0l-0.264,0.442l0,0.286l-0.11,-0l0,-0.286l-0.264,-0.442Z" style="fill:#cca43b;fill-rule:nonzero;"/></g><g transform="matrix(25,0,0,25,506.338833,57.993648)"><path d="M0.059,-0.728l0.134,0l0.231,0.565l0.008,0l0.232,-0.565l0.136,0l0,0.728l-0.107,-0l0,-0.526l-0.007,0l-0.215,0.525l-0.087,0l-0.213,-0.526l-0.007,0l0,0.527l-0.105,-0l0,-0.728Z" style="fill:#cca43b;fill-rule:nonzero;"/></g><g transform="matrix(25,0,0,25,527.798794,57.993648)"><path d="M0.059,-0l0,-0.728l0.267,0c0.051,0 0.094,0.008 0.128,0.025c0.034,0.017 0.059,0.04 0.076,0.069c0.017,0.029 0.025,0.061 0.025,0.097c0,0.03 -0.006,0.056 -0.017,0.077c-0.011,0.021 -0.026,0.037 -0.045,0.05c-0.019,0.012 -0.039,0.021 -0.062,0.027l0,0.007c0.024,0.001 0.048,0.009 0.071,0.023c0.023,0.014 0.042,0.035 0.057,0.061c0.015,0.026 0.023,0.058 0.023,0.096c0,0.037 -0.009,0.07 -0.026,0.1c-0.017,0.029 -0.044,0.053 -0.08,0.07c-0.036,0.017 -0.083,0.026 -0.139,0.026l-0.279,-0Zm0.11,-0.094l0.158,0c0.053,0 0.09,-0.01 0.113,-0.031c0.023,-0.021 0.034,-0.046 0.034,-0.077c0,-0.023 -0.006,-0.044 -0.017,-0.063c-0.012,-0.019 -0.028,-0.034 -0.05,-0.046c-0.021,-0.011 -0.047,-0.017 -0.076,-0.017l-0.163,0l0,0.233Zm0,-0.319l0.147,0c0.024,0 0.047,-0.005 0.066,-0.014c0.02,-0.009 0.036,-0.023 0.047,-0.04c0.012,-0.017 0.017,-0.038 0.017,-0.061c0,-0.03 -0.01,-0.055 -0.031,-0.075c-0.021,-0.02 -0.053,-0.031 -0.096,-0.031l-0.15,0l0,0.221Z" style="fill:#cca43b;fill-rule:nonzero;"/></g><g transform="matrix(25,0,0,25,543.094204,57.993648)"><path d="M0.363,0.01c-0.062,0 -0.118,-0.015 -0.168,-0.045c-0.049,-0.03 -0.089,-0.073 -0.117,-0.129c-0.029,-0.056 -0.043,-0.122 -0.043,-0.199c0,-0.078 0.014,-0.145 0.043,-0.2c0.029,-0.056 0.068,-0.099 0.117,-0.129c0.049,-0.03 0.105,-0.045 0.168,-0.045c0.063,0 0.119,0.015 0.168,0.045c0.049,0.03 0.088,0.073 0.116,0.129c0.028,0.056 0.043,0.123 0.043,0.2c0,0.077 -0.014,0.144 -0.043,0.2c-0.028,0.056 -0.067,0.098 -0.116,0.128c-0.049,0.03 -0.105,0.045 -0.168,0.045Zm0,-0.1c0.042,0 0.079,-0.01 0.112,-0.031c0.033,-0.021 0.059,-0.052 0.078,-0.092c0.019,-0.041 0.029,-0.09 0.029,-0.149c0,-0.059 -0.01,-0.109 -0.029,-0.15c-0.019,-0.041 -0.045,-0.072 -0.078,-0.093c-0.033,-0.021 -0.07,-0.031 -0.112,-0.031c-0.042,0 -0.079,0.01 -0.112,0.031c-0.033,0.021 -0.059,0.052 -0.078,0.093c-0.019,0.041 -0.029,0.091 -0.029,0.15c0,0.059 0.01,0.109 0.029,0.149c0.019,0.041 0.045,0.071 0.078,0.092c0.033,0.021 0.07,0.031 0.112,0.031Z" style="fill:#cca43b;fill-rule:nonzero;"/></g><g transform="matrix(25,0,0,25,561.24606,57.993648)"><path d="M0.059,-0l0,-0.728l0.11,0l0,0.633l0.33,0l0,0.094l-0.439,-0Z" style="fill:#cca43b;fill-rule:nonzero;"/></g><g transform="matrix(25,0,0,25,574.295376,57.993648)"><rect x="0.059" y="-0.728" width="0.11" height="0.728" style="fill:#cca43b;fill-rule:nonzero;"/></g><g transform="matrix(25,0,0,25,579.971646,57.993648)"><path d="M0.362,0.01c-0.062,0 -0.118,-0.015 -0.168,-0.045c-0.049,-0.03 -0.088,-0.073 -0.117,-0.129c-0.028,-0.056 -0.042,-0.122 -0.042,-0.199c0,-0.078 0.014,-0.145 0.043,-0.2c0.028,-0.056 0.067,-0.099 0.117,-0.129c0.049,-0.03 0.105,-0.045 0.168,-0.045c0.038,0 0.074,0.006 0.108,0.017c0.034,0.011 0.064,0.027 0.091,0.048c0.027,0.021 0.049,0.047 0.066,0.078c0.017,0.031 0.029,0.065 0.035,0.104l-0.11,0c-0.004,-0.024 -0.012,-0.045 -0.024,-0.063c-0.012,-0.018 -0.026,-0.033 -0.042,-0.046c-0.017,-0.013 -0.035,-0.022 -0.056,-0.028c-0.021,-0.006 -0.043,-0.01 -0.066,-0.01c-0.042,0 -0.079,0.01 -0.113,0.031c-0.033,0.021 -0.06,0.052 -0.079,0.093c-0.019,0.041 -0.029,0.091 -0.029,0.15c0,0.059 0.01,0.109 0.029,0.15c0.019,0.041 0.045,0.071 0.079,0.092c0.033,0.021 0.07,0.031 0.112,0.031c0.023,0 0.045,-0.003 0.065,-0.009c0.021,-0.006 0.039,-0.015 0.056,-0.028c0.017,-0.012 0.031,-0.027 0.043,-0.045c0.012,-0.018 0.02,-0.038 0.024,-0.062l0.11,0c-0.006,0.036 -0.017,0.069 -0.034,0.099c-0.017,0.03 -0.039,0.056 -0.065,0.077c-0.026,0.022 -0.056,0.038 -0.09,0.05c-0.034,0.012 -0.071,0.018 -0.111,0.018Z" style="fill:#cca43b;fill-rule:nonzero;"/></g><g transform="matrix(25,0,0,25,602.872036,57.993648)"><path d="M0.059,-0l0,-0.728l0.11,0l0,0.633l0.33,0l0,0.094l-0.439,-0Z" style="fill:#cca43b;fill-rule:nonzero;"/></g><g transform="matrix(25,0,0,25,616.824673,57.993648)"><path d="M0.121,-0l-0.117,-0l0.262,-0.728l0.127,0l0.261,0.728l-0.116,-0l-0.206,-0.595l-0.006,0l-0.205,0.595Zm0.02,-0.285l0.377,0l0,0.092l-0.377,0l0,-0.092Z" style="fill:#cca43b;fill-rule:nonzero;"/></g><g transform="matrix(25,0,0,25,633.255337,57.993648)"><path d="M0.647,-0.728l0,0.728l-0.103,-0l-0.369,-0.533l-0.007,0l0,0.533l-0.11,-0l0,-0.728l0.102,0l0.37,0.534l0.007,0l0,-0.534l0.11,0Z" style="fill:#cca43b;fill-rule:nonzero;"/></g><g transform="matrix(25,0,0,25,650.894497,57.993648)"><path d="M0.366,0.01c-0.066,0 -0.123,-0.015 -0.173,-0.045c-0.05,-0.03 -0.088,-0.073 -0.116,-0.129c-0.028,-0.056 -0.042,-0.122 -0.042,-0.198c0,-0.077 0.014,-0.144 0.042,-0.2c0.028,-0.056 0.067,-0.099 0.116,-0.129c0.049,-0.03 0.105,-0.045 0.168,-0.045c0.039,0 0.076,0.006 0.11,0.017c0.034,0.012 0.064,0.028 0.091,0.05c0.027,0.021 0.049,0.047 0.066,0.076c0.017,0.029 0.029,0.061 0.035,0.097l-0.112,0c-0.007,-0.022 -0.016,-0.041 -0.027,-0.058c-0.011,-0.017 -0.025,-0.032 -0.041,-0.044c-0.016,-0.012 -0.034,-0.021 -0.054,-0.028c-0.02,-0.006 -0.042,-0.01 -0.067,-0.01c-0.041,0 -0.078,0.01 -0.111,0.031c-0.033,0.021 -0.059,0.052 -0.078,0.093c-0.019,0.041 -0.029,0.09 -0.029,0.149c0,0.059 0.01,0.109 0.029,0.149c0.019,0.041 0.046,0.072 0.079,0.093c0.034,0.021 0.072,0.031 0.114,0.031c0.039,0 0.074,-0.008 0.103,-0.024c0.029,-0.016 0.052,-0.039 0.068,-0.068c0.016,-0.029 0.024,-0.064 0.024,-0.104l0.029,0.005l-0.208,0l0,-0.091l0.286,0l0,0.083c0,0.061 -0.013,0.114 -0.039,0.159c-0.026,0.045 -0.062,0.079 -0.107,0.104c-0.046,0.024 -0.098,0.037 -0.156,0.037Z" style="fill:#cca43b;fill-rule:nonzero;"/></g><g transform="matrix(25,0,0,25,668.570279,57.993648)"><path d="M0.527,-0.728l0.11,0l0,0.479c0,0.051 -0.012,0.096 -0.036,0.135c-0.024,0.039 -0.058,0.07 -0.101,0.092c-0.043,0.022 -0.094,0.033 -0.152,0.033c-0.058,0 -0.109,-0.011 -0.152,-0.033c-0.043,-0.022 -0.077,-0.053 -0.101,-0.092c-0.024,-0.039 -0.036,-0.084 -0.036,-0.135l0,-0.479l0.11,0l0,0.47c0,0.033 0.007,0.062 0.022,0.088c0.014,0.026 0.035,0.046 0.062,0.06c0.027,0.015 0.059,0.022 0.095,0.022c0.037,0 0.069,-0.007 0.096,-0.022c0.027,-0.015 0.047,-0.035 0.062,-0.06c0.014,-0.026 0.022,-0.055 0.022,-0.088l0,-0.47Z" style="fill:#cca43b;fill-rule:nonzero;"/></g><g transform="matrix(25,0,0,25,685.953091,57.993648)"><path d="M0.121,-0l-0.117,-0l0.262,-0.728l0.127,0l0.261,0.728l-0.116,-0l-0.206,-0.595l-0.006,0l-0.205,0.595Zm0.02,-0.285l0.377,0l0,0.092l-0.377,0l0,-0.092Z" style="fill:#cca43b;fill-rule:nonzero;"/></g><g transform="matrix(25,0,0,25,701.517056,57.993648)"><path d="M0.366,0.01c-0.066,0 -0.123,-0.015 -0.173,-0.045c-0.05,-0.03 -0.088,-0.073 -0.116,-0.129c-0.028,-0.056 -0.042,-0.122 -0.042,-0.198c0,-0.077 0.014,-0.144 0.042,-0.2c0.028,-0.056 0.067,-0.099 0.116,-0.129c0.049,-0.03 0.105,-0.045 0.168,-0.045c0.039,0 0.076,0.006 0.11,0.017c0.034,0.012 0.064,0.028 0.091,0.05c0.027,0.021 0.049,0.047 0.066,0.076c0.017,0.029 0.029,0.061 0.035,0.097l-0.112,0c-0.007,-0.022 -0.016,-0.041 -0.027,-0.058c-0.011,-0.017 -0.025,-0.032 -0.041,-0.044c-0.016,-0.012 -0.034,-0.021 -0.054,-0.028c-0.02,-0.006 -0.042,-0.01 -0.067,-0.01c-0.041,0 -0.078,0.01 -0.111,0.031c-0.033,0.021 -0.059,0.052 -0.078,0.093c-0.019,0.041 -0.029,0.09 -0.029,0.149c0,0.059 0.01,0.109 0.029,0.149c0.019,0.041 0.046,0.072 0.079,0.093c0.034,0.021 0.072,0.031 0.114,0.031c0.039,0 0.074,-0.008 0.103,-0.024c0.029,-0.016 0.052,-0.039 0.068,-0.068c0.016,-0.029 0.024,-0.064 0.024,-0.104l0.029,0.005l-0.208,0l0,-0.091l0.286,0l0,0.083c0,0.061 -0.013,0.114 -0.039,0.159c-0.026,0.045 -0.062,0.079 -0.107,0.104c-0.046,0.024 -0.098,0.037 -0.156,0.037Z" style="fill:#cca43b;fill-rule:nonzero;"/></g><g transform="matrix(25,0,0,25,719.192837,57.993648)"><path d="M0.059,-0l0,-0.728l0.457,0l0,0.094l-0.347,0l0,0.219l0.322,0l0,0.094l-0.322,0l0,0.226l0.35,0l0,0.094l-0.46,-0Z" style="fill:#cca43b;fill-rule:nonzero;"/></g></g></g><g transform="matrix(1,0,0,1,5.544554,23.305281)"><g><g transform="matrix(25,0,0,25,107.722772,334.257426)"><path d="M0.39,0.01c0.225,0 0.36,-0.107 0.36,-0.286l0,-0.017l-0.21,0l0,0.017c0,0.076 -0.036,0.106 -0.147,0.106c-0.136,0 -0.173,-0.032 -0.173,-0.165c0,-0.133 0.037,-0.165 0.173,-0.165c0.111,0 0.147,0.03 0.147,0.106l0,0.017l0.21,0l0,-0.017c0,-0.179 -0.135,-0.286 -0.36,-0.286c-0.233,0 -0.37,0.136 -0.37,0.345c-0,0.209 0.137,0.345 0.37,0.345Z" style="fill:#cca43b;fill-rule:nonzero;"/></g><g transform="matrix(25,0,0,25,126.972772,334.257426)"><path d="M0.605,-0l0,-0.169l-0.387,0l0,-0.501l-0.188,0l0,0.67l0.575,-0Z" style="fill:#cca43b;fill-rule:nonzero;"/></g><g transform="matrix(25,0,0,25,142.597772,334.257426)"><path d="M0.201,-0l0.052,-0.124l0.318,0l0.051,0.124l0.216,-0l-0.29,-0.67l-0.269,0l-0.289,0.67l0.211,-0Zm0.162,-0.387l0.043,-0.113l0.013,0l0.044,0.113l0.039,0.094l-0.178,0l0.039,-0.094Z" style="fill:#cca43b;fill-rule:nonzero;"/></g><g transform="matrix(25,0,0,25,163.297772,334.257426)"><path d="M0.218,-0l0,-0.228l0.077,0c0.073,0 0.093,0.014 0.117,0.064l0.08,0.164l0.217,-0l-0.083,-0.168c-0.025,-0.051 -0.047,-0.084 -0.116,-0.102l0,-0.01c0.128,-0.016 0.181,-0.079 0.181,-0.185c0,-0.131 -0.093,-0.205 -0.27,-0.205l-0.391,0l0,0.67l0.188,-0Zm0,-0.501l0.201,0c0.055,0 0.075,0.013 0.075,0.066c0,0.057 -0.02,0.067 -0.075,0.067l-0.201,0l0,-0.133Z" style="fill:#cca43b;fill-rule:nonzero;"/></g><g transform="matrix(25,0,0,25,181.022772,334.257426)"><rect x="0.03" y="-0.67" width="0.188" height="0.67" style="fill:#cca43b;fill-rule:nonzero;"/></g><g transform="matrix(25,0,0,25,187.222772,334.257426)"><path d="M0.44,-0l0,-0.501l0.236,0l0,-0.169l-0.661,0l-0,0.169l0.237,0l0,0.501l0.188,-0Z" style="fill:#cca43b;fill-rule:nonzero;"/></g><g transform="matrix(25,0,0,25,204.497772,334.257426)"><path d="M0.474,-0l0,-0.212l0.307,-0.458l-0.234,0l-0.101,0.159l-0.057,0.094l-0.013,0l-0.057,-0.094l-0.101,-0.159l-0.233,0l0.301,0.457l0,0.213l0.188,-0Z" style="fill:#cca43b;fill-rule:nonzero;"/></g></g></g><g transform="matrix(1,0,0,1,290.295916,26.180281)"><g><g transform="matrix(25,0,0,25,107.722772,334.257426)"><path d="M0.218,-0l0,-0.277l-0.007,-0.112l0.013,0l0.038,0.112l0.1,0.237l0.228,0l0.1,-0.237l0.038,-0.112l0.013,0l-0.007,0.112l0,0.277l0.188,-0l0,-0.67l-0.255,0l-0.117,0.278l-0.063,0.173l-0.013,0l-0.066,-0.173l-0.123,-0.278l-0.255,0l-0,0.67l0.188,-0Z" style="fill:#cca43b;fill-rule:nonzero;"/></g><g transform="matrix(25,0,0,25,131.522772,334.257426)"><path d="M0.625,-0l0,-0.169l-0.407,0l0,-0.084l0.392,0l0,-0.168l-0.392,0l0,-0.08l0.407,0l0,-0.169l-0.595,0l-0,0.67l0.595,-0Z" style="fill:#cca43b;fill-rule:nonzero;"/></g><g transform="matrix(25,0,0,25,147.722772,334.257426)"><path d="M0.201,-0l0.052,-0.124l0.318,0l0.051,0.124l0.216,-0l-0.29,-0.67l-0.269,0l-0.289,0.67l0.211,-0Zm0.162,-0.387l0.043,-0.113l0.013,0l0.044,0.113l0.039,0.094l-0.178,0l0.039,-0.094Z" style="fill:#cca43b;fill-rule:nonzero;"/></g><g transform="matrix(25,0,0,25,168.422772,334.257426)"><path d="M0.218,-0l0,-0.262l-0.008,-0.128l0.013,0l0.085,0.132l0.198,0.258l0.2,-0l0,-0.67l-0.188,0l0,0.259l0.009,0.146l-0.013,0l-0.098,-0.154l-0.186,-0.251l-0.2,0l0,0.67l0.188,-0Z" style="fill:#cca43b;fill-rule:nonzero;"/></g><g transform="matrix(25,0,0,25,186.822772,334.257426)"><rect x="0.03" y="-0.67" width="0.188" height="0.67" style="fill:#cca43b;fill-rule:nonzero;"/></g><g transform="matrix(25,0,0,25,193.022772,334.257426)"><path d="M0.218,-0l0,-0.262l-0.008,-0.128l0.013,0l0.085,0.132l0.198,0.258l0.2,-0l0,-0.67l-0.188,0l0,0.259l0.009,0.146l-0.013,0l-0.098,-0.154l-0.186,-0.251l-0.2,0l0,0.67l0.188,-0Z" style="fill:#cca43b;fill-rule:nonzero;"/></g><g transform="matrix(25,0,0,25,211.422772,334.257426)"><path d="M0.354,0.01c0.157,0 0.214,-0.075 0.232,-0.153l0.01,0l0,0.143l0.175,-0l0,-0.366l-0.396,0l0,0.138l0.206,0c-0.009,0.051 -0.049,0.058 -0.188,0.058c-0.136,0 -0.173,-0.032 -0.173,-0.165c0,-0.133 0.039,-0.165 0.183,-0.165c0.119,0 0.157,0.024 0.157,0.086l0,0.007l0.21,0l0,-0.007c0,-0.166 -0.135,-0.266 -0.362,-0.266c-0.244,0 -0.388,0.136 -0.388,0.345c-0,0.209 0.123,0.345 0.334,0.345Z" style="fill:#cca43b;fill-rule:nonzero;"/></g></g></g><g transform="matrix(1,0,0,1,583.689839,26.138614)"><g><g transform="matrix(25,0,0,25,107.722772,334.257426)"><path d="M0.605,-0l0,-0.169l-0.387,0l0,-0.501l-0.188,0l0,0.67l0.575,-0Z" style="fill:#cca43b;fill-rule:nonzero;"/></g><g transform="matrix(25,0,0,25,123.347772,334.257426)"><path d="M0.625,-0l0,-0.169l-0.407,0l0,-0.084l0.392,0l0,-0.168l-0.392,0l0,-0.08l0.407,0l0,-0.169l-0.595,0l-0,0.67l0.595,-0Z" style="fill:#cca43b;fill-rule:nonzero;"/></g><g transform="matrix(25,0,0,25,139.547772,334.257426)"><path d="M0.354,0.01c0.157,0 0.214,-0.075 0.232,-0.153l0.01,0l0,0.143l0.175,-0l0,-0.366l-0.396,0l0,0.138l0.206,0c-0.009,0.051 -0.049,0.058 -0.188,0.058c-0.136,0 -0.173,-0.032 -0.173,-0.165c0,-0.133 0.039,-0.165 0.183,-0.165c0.119,0 0.157,0.024 0.157,0.086l0,0.007l0.21,0l0,-0.007c0,-0.166 -0.135,-0.266 -0.362,-0.266c-0.244,0 -0.388,0.136 -0.388,0.345c-0,0.209 0.123,0.345 0.334,0.345Z" style="fill:#cca43b;fill-rule:nonzero;"/></g><g transform="matrix(25,0,0,25,159.472772,334.257426)"><path d="M0.201,-0l0.052,-0.124l0.318,0l0.051,0.124l0.216,-0l-0.29,-0.67l-0.269,0l-0.289,0.67l0.211,-0Zm0.162,-0.387l0.043,-0.113l0.013,0l0.044,0.113l0.039,0.094l-0.178,0l0.039,-0.094Z" style="fill:#cca43b;fill-rule:nonzero;"/></g><g transform="matrix(25,0,0,25,180.172772,334.257426)"><path d="M0.39,0.01c0.225,0 0.36,-0.107 0.36,-0.286l0,-0.017l-0.21,0l0,0.017c0,0.076 -0.036,0.106 -0.147,0.106c-0.136,0 -0.173,-0.032 -0.173,-0.165c0,-0.133 0.037,-0.165 0.173,-0.165c0.111,0 0.147,0.03 0.147,0.106l0,0.017l0.21,0l0,-0.017c0,-0.179 -0.135,-0.286 -0.36,-0.286c-0.233,0 -0.37,0.136 -0.37,0.345c-0,0.209 0.137,0.345 0.37,0.345Z" style="fill:#cca43b;fill-rule:nonzero;"/></g><g transform="matrix(25,0,0,25,199.422772,334.257426)"><path d="M0.474,-0l0,-0.212l0.307,-0.458l-0.234,0l-0.101,0.159l-0.057,0.094l-0.013,0l-0.057,-0.094l-0.101,-0.159l-0.233,0l0.301,0.457l0,0.213l0.188,-0Z" style="fill:#cca43b;fill-rule:nonzero;"/></g></g></g><g transform="matrix(1,0,0,1,865.670037,26.138614)"><g><g transform="matrix(25,0,0,25,107.722772,334.257426)"><path d="M0.218,-0l0,-0.252l0.312,0l0,0.252l0.188,-0l0,-0.67l-0.188,0l0,0.249l-0.312,0l0,-0.249l-0.188,0l0,0.67l0.188,-0Z" style="fill:#cca43b;fill-rule:nonzero;"/></g><g transform="matrix(25,0,0,25,126.422772,334.257426)"><path d="M0.368,0.01c0.234,0 0.342,-0.113 0.342,-0.291l0,-0.389l-0.188,0l0,0.374c0,0.095 -0.027,0.124 -0.154,0.124c-0.127,0 -0.154,-0.029 -0.154,-0.124l0,-0.374l-0.188,0l0,0.389c0,0.178 0.108,0.291 0.342,0.291Z" style="fill:#cca43b;fill-rule:nonzero;"/></g><g transform="matrix(25,0,0,25,144.822772,334.257426)"><path d="M0.218,-0l0,-0.277l-0.007,-0.112l0.013,0l0.038,0.112l0.1,0.237l0.228,0l0.1,-0.237l0.038,-0.112l0.013,0l-0.007,0.112l0,0.277l0.188,-0l0,-0.67l-0.255,0l-0.117,0.278l-0.063,0.173l-0.013,0l-0.066,-0.173l-0.123,-0.278l-0.255,0l-0,0.67l0.188,-0Z" style="fill:#cca43b;fill-rule:nonzero;"/></g><g transform="matrix(25,0,0,25,168.622772,334.257426)"><path d="M0.201,-0l0.052,-0.124l0.318,0l0.051,0.124l0.216,-0l-0.29,-0.67l-0.269,0l-0.289,0.67l0.211,-0Zm0.162,-0.387l0.043,-0.113l0.013,0l0.044,0.113l0.039,0.094l-0.178,0l0.039,-0.094Z" style="fill:#cca43b;fill-rule:nonzero;"/></g><g transform="matrix(25,0,0,25,189.322772,334.257426)"><path d="M0.218,-0l0,-0.262l-0.008,-0.128l0.013,0l0.085,0.132l0.198,0.258l0.2,-0l0,-0.67l-0.188,0l0,0.259l0.009,0.146l-0.013,0l-0.098,-0.154l-0.186,-0.251l-0.2,0l0,0.67l0.188,-0Z" style="fill:#cca43b;fill-rule:nonzero;"/></g><g transform="matrix(25,0,0,25,207.722772,334.257426)"><path d="M0.355,0.01c0.226,0 0.314,-0.102 0.314,-0.217c0,-0.086 -0.044,-0.17 -0.208,-0.194l-0.21,-0.031c-0.036,-0.005 -0.048,-0.015 -0.048,-0.036c0,-0.029 0.021,-0.042 0.117,-0.042c0.126,0 0.147,0.016 0.147,0.064l0,0.015l0.188,0l0,-0.006c0,-0.15 -0.102,-0.243 -0.315,-0.243c-0.242,0 -0.325,0.112 -0.325,0.219c-0,0.108 0.063,0.175 0.188,0.192l0.21,0.028c0.055,0.007 0.068,0.017 0.068,0.041c0,0.03 -0.012,0.039 -0.126,0.039c-0.126,0 -0.142,-0.012 -0.142,-0.057l0,-0.021l-0.188,0l0,0.006c0,0.17 0.125,0.243 0.33,0.243Z" style="fill:#cca43b;fill-rule:nonzero;"/></g></g></g></svg>