<?xml version="1.0" encoding="UTF-8" standalone="no"?><!DOCTYPE svg PUBLIC "-//W3C//DTD SVG 1.1//EN" "http://www.w3.org/Graphics/SVG/1.1/DTD/svg11.dtd"><svg width="100%" height="100%" viewBox="0 0 256 256" version="1.1" xmlns="http://www.w3.org/2000/svg" xmlns:xlink="http://www.w3.org/1999/xlink" xml:space="preserve" xmlns:serif="http://www.serif.com/" style="fill-rule:evenodd;clip-rule:evenodd;stroke-linejoin:round;stroke-miterlimit:2;"><path d="M125.178,237.619c-59.218,-1.499 -106.833,-50.043 -106.833,-109.619c0,-59.577 47.615,-108.12 106.833,-109.619l0,6.643c-55.553,1.497 -100.192,47.065 -100.192,102.976c-0,55.911 44.639,101.479 100.192,102.976l0,6.643Zm5.645,-219.239c59.218,1.499 106.833,50.043 106.833,109.619c0,59.577 -47.615,108.12 -106.833,109.619l-0,-6.643c55.553,-1.497 100.192,-47.065 100.192,-102.976c0,-55.911 -44.639,-101.479 -100.192,-102.976l-0,-6.643Z" style="fill:#cca43b;"/><path d="M130.822,81.849c24.206,1.46 43.414,21.58 43.414,46.151c0,24.571 -19.208,44.691 -43.414,46.151l0,-2.806c22.66,-1.456 40.614,-20.321 40.614,-43.346c0,-23.025 -17.954,-41.889 -40.614,-43.346l-0,-2.806Z" style="fill:#cca43b;"/><path d="M130.822,50.022c41.76,1.488 75.206,35.858 75.206,77.978c0,42.12 -33.446,76.491 -75.206,77.978l-0,-4.729c39.151,-1.485 70.481,-33.738 70.481,-73.25c0,-39.512 -31.329,-71.764 -70.481,-73.25l0,-4.729Z" style="fill:#cca43b;"/><path d="M130.822,64.44c34.039,1.213 61.301,29.228 61.301,63.56c0,34.332 -27.262,62.347 -61.301,63.56l-0,-3.854c31.912,-1.211 57.449,-27.499 57.449,-59.706c0,-32.206 -25.537,-58.495 -57.449,-59.706l0,-3.854Z" style="fill:#cca43b;"/><path d="M125,212.518c-44.712,-1.281 -80.776,-37.344 -82.057,-82.057l6.373,-0c1.277,41.196 34.487,74.407 75.683,75.683l0,6.373Zm0,-162.662c-41.196,1.277 -74.407,34.487 -75.683,75.683l-6.373,0c1.281,-44.712 37.344,-80.776 82.057,-82.057l0,6.373Z" style="fill:#cca43b;"/><path d="M130.822,33.204c50.149,1.437 90.599,41.886 92.035,92.035l-7.148,0c-1.432,-46.206 -38.681,-83.455 -84.887,-84.887l-0,-7.148Zm0,182.443c46.206,-1.432 83.455,-38.681 84.887,-84.887l7.148,-0c-1.437,50.149 -41.886,90.599 -92.035,92.035l-0,-7.148Z" style="fill:#cca43b;"/><path d="M126.99,121.823l-0,-93.906l1.01,0l-0,95.532l-1.01,-1.626Zm1.01,12.353l0,93.906l-1.01,0l-0,-95.532l1.01,1.626Z" style="fill:#cca43b;"/></svg>