<?xml version="1.0" encoding="UTF-8" standalone="no"?><!DOCTYPE svg PUBLIC "-//W3C//DTD SVG 1.1//EN" "http://www.w3.org/Graphics/SVG/1.1/DTD/svg11.dtd"><svg width="100%" height="100%" viewBox="0 0 256 256" version="1.1" xmlns="http://www.w3.org/2000/svg" xmlns:xlink="http://www.w3.org/1999/xlink" xml:space="preserve" xmlns:serif="http://www.serif.com/" style="fill-rule:evenodd;clip-rule:evenodd;stroke-linejoin:round;stroke-miterlimit:2;"><path d="M99.449,24.011c49.396,0 89.5,40.104 89.5,89.5c0,49.396 -40.104,89.5 -89.5,89.5c-49.396,0 -89.5,-40.104 -89.5,-89.5c0,-49.396 40.104,-89.5 89.5,-89.5Zm0,8.805c-44.537,0 -80.695,36.158 -80.695,80.695c0,44.537 36.158,80.695 80.695,80.695c44.537,0 80.695,-36.158 80.695,-80.695c0,-44.537 -36.158,-80.695 -80.695,-80.695Z" style="fill:#cca43b;"/><path d="M156.551,10.675c49.396,0 89.5,40.104 89.5,89.5c0,49.396 -40.104,89.5 -89.5,89.5c-49.396,0 -89.5,-40.104 -89.5,-89.5c0,-49.396 40.104,-89.5 89.5,-89.5Zm0,8.805c-44.537,0 -80.695,36.158 -80.695,80.695c0,44.537 36.158,80.695 80.695,80.695c44.537,0 80.695,-36.158 80.695,-80.695c0,-44.537 -36.158,-80.695 -80.695,-80.695Z" style="fill:#cca43b;"/><path d="M137.745,66.324c49.396,0 89.5,40.104 89.5,89.5c0,49.396 -40.104,89.5 -89.5,89.5c-49.396,0 -89.5,-40.104 -89.5,-89.5c0,-49.396 40.104,-89.5 89.5,-89.5Zm0,8.805c-44.537,0 -80.695,36.158 -80.695,80.695c0,44.537 36.158,80.695 80.695,80.695c44.537,0 80.695,-36.158 80.695,-80.695c0,-44.537 -36.158,-80.695 -80.695,-80.695Z" style="fill:#cca43b;"/></svg>