<?xml version="1.0" encoding="UTF-8" standalone="no"?><!DOCTYPE svg PUBLIC "-//W3C//DTD SVG 1.1//EN" "http://www.w3.org/Graphics/SVG/1.1/DTD/svg11.dtd"><svg width="100%" height="100%" viewBox="0 0 256 256" version="1.1" xmlns="http://www.w3.org/2000/svg" xmlns:xlink="http://www.w3.org/1999/xlink" xml:space="preserve" xmlns:serif="http://www.serif.com/" style="fill-rule:evenodd;clip-rule:evenodd;stroke-linejoin:round;stroke-miterlimit:2;"><path d="M83.236,147.921l-15.491,9.196c-2.865,-0.75 -5.102,-2.989 -5.851,-5.854c-0.748,-2.866 2.837,-5.057 4.969,-7.113l64.582,-63.775l4.511,16.68l-52.72,50.866Zm21.986,5.756l127.11,33.278l-41.555,-145.538l-38.838,39.898l-2.795,-16.319l40.189,-42.377c1.467,-1.414 3.563,-1.961 5.534,-1.445c1.97,0.516 3.53,2.021 4.116,3.972l50.176,167.124c0.816,2.719 0.101,5.667 -1.87,7.71c-1.971,2.043 -4.892,2.862 -7.638,2.143l-140.158,-36.694l5.729,-11.752Z" style="fill:#cca43b;"/><path d="M71.663,158.143l-59.037,-15.456c-2.858,-0.748 -5.092,-2.978 -5.846,-5.835c-0.754,-2.857 0.089,-5.898 2.206,-7.959l124.02,-120.734c1.467,-1.428 3.574,-1.984 5.555,-1.466c1.98,0.518 3.545,2.036 4.124,3.999l43.076,147.475l-17.486,-4.578l-34.746,-127.16l-105.674,105.411l55.244,14.6l-11.437,11.702Zm33.423,-5.825l66.1,24.051l20.194,3.071c0.801,2.716 0.5,3.502 -1.472,5.535c-1.972,2.033 -4.885,2.847 -7.625,2.129l-88.806,-23.25l11.609,-11.536Z" style="fill:#cca43b;"/><path d="M188.423,175.918l16.239,63.619c0.755,2.708 0.004,5.613 -1.968,7.616c-1.972,2.003 -4.865,2.8 -7.584,2.088l-172.937,-45.276c-2.837,-0.743 -5.061,-2.946 -5.83,-5.776c-0.769,-2.83 -0.531,-7.058 1.54,-9.134l112.471,-107.092l0.813,19.23l-94.254,92.513l151.622,39.19l-16.491,-61.601l16.378,4.625Zm-20.223,-22.347l-18.462,-72.014l0.554,-2.116l-4.763,-13.687l1.959,-2.915c1.467,-1.472 2.286,-2.717 4.296,-2.19c2.01,0.526 5.884,-1.437 6.442,0.565l26.982,95.216l-17.008,-2.859Z" style="fill:#cca43b;"/><path d="M96.552,134.813l-28.128,-7.364c-2.633,-0.689 -4.686,-2.75 -5.367,-5.385c-0.681,-2.635 0.118,-5.432 2.088,-7.31l53.315,-50.832c1.57,-1.496 3.802,-2.073 5.9,-1.524c2.098,0.549 3.762,2.146 4.396,4.22l21.238,69.365c0.863,2.819 0.133,5.884 -1.909,8.011c-2.041,2.127 -5.074,2.982 -7.926,2.236l-18.38,-4.812l7.86,-8.436l3.847,-1.945l-14.483,-48.352l-34.901,34.794l23.862,6.607l-11.412,10.728Z" style="fill:#cca43b;"/><path d="M154.091,99.742l21.8,-20.784c1.57,-1.496 3.802,-2.073 5.9,-1.524c2.098,0.549 3.762,2.146 4.396,4.22l21.238,69.365c0.863,2.819 0.133,5.884 -1.909,8.011c-2.041,2.127 -5.074,2.982 -7.926,2.236l-71.736,-18.781c-2.633,-0.689 -3.641,-1.562 -4.321,-4.197c-0.681,-2.635 6.372,-2.951 8.342,-4.829l8.474,-20.242l5.484,14.179l-3.914,5.326l50.801,13.3l-14.483,-48.352l-17.781,17.161l-4.365,-15.087Z" style="fill:#cca43b;"/><path d="M154.727,172.006l9.371,26.658c0.838,2.895 0.083,6.057 -1.975,8.265c-2.058,2.207 -5.096,3.114 -7.939,2.37l-71.523,-18.725c-2.625,-0.687 -4.659,-2.791 -5.317,-5.498c-0.658,-2.707 0.165,-5.594 2.149,-7.544l24.474,-24.056l9.505,10.45l-16.673,16.476l50.65,13.261l-9.26,-25.545l16.539,3.89Zm-21.45,-27.579l-23.949,23.577l-10.061,-9.909l33.936,-33.357c1.581,-1.554 35.612,28.993 35.612,28.993l-35.537,-9.304Z" style="fill:#cca43b;"/></svg>