<?xml version="1.0" encoding="UTF-8" standalone="no"?><!DOCTYPE svg PUBLIC "-//W3C//DTD SVG 1.1//EN" "http://www.w3.org/Graphics/SVG/1.1/DTD/svg11.dtd"><svg width="100%" height="100%" viewBox="0 0 256 256" version="1.1" xmlns="http://www.w3.org/2000/svg" xmlns:xlink="http://www.w3.org/1999/xlink" xml:space="preserve" xmlns:serif="http://www.serif.com/" style="fill-rule:evenodd;clip-rule:evenodd;stroke-linejoin:round;stroke-miterlimit:2;"><path d="M12.842,119.332c4.22,-56.749 49.528,-102.133 106.244,-106.471l0,7.016c-52.854,4.307 -95.041,46.569 -99.23,99.456l-7.014,-0Zm223.302,0c-4.189,-52.887 -46.376,-95.149 -99.23,-99.456l-0,-7.016c56.716,4.338 102.025,49.722 106.244,106.471l-7.014,0Zm7.014,17.337c-4.22,56.749 -49.528,102.133 -106.244,106.471l0,-7.016c52.854,-4.307 95.041,-46.569 99.23,-99.456l7.014,-0Zm-223.302,0c4.189,52.887 46.376,95.149 99.23,99.456l-0,7.016c-56.716,-4.338 -102.025,-49.722 -106.244,-106.471l7.014,0Z" style="fill:#cca43b;"/><path d="M73.592,178.613c-10.501,-11.282 -17.539,-25.83 -19.414,-41.944l4.534,-0c1.838,14.812 8.322,28.192 17.947,38.633l-3.067,3.311Zm4.261,-99.178c-10.283,10.615 -17.229,24.48 -19.142,39.897l-4.534,0c1.953,-16.786 9.509,-31.872 20.746,-43.338l2.93,3.441Zm-0.501,-5.81c11.335,-10.564 25.972,-17.629 42.183,-19.471l-0,4.532c-14.91,1.805 -28.378,8.318 -38.872,18.005l-3.311,-3.067Zm100.104,5.107c-10.77,-10.811 -25.058,-18.116 -40.992,-20.045l-0,-4.532c17.304,1.965 32.813,9.882 44.428,21.652l-3.436,2.926Zm5.766,-0.455c10.051,11.153 16.774,25.362 18.601,41.056l-4.534,0c-1.786,-14.393 -7.959,-27.434 -17.138,-37.74l3.071,-3.316Zm-5.882,99.109c10.726,-10.716 17.987,-24.9 19.949,-40.717l4.534,-0c-2,17.186 -9.873,32.592 -21.557,44.153l-2.926,-3.437Zm0.349,5.869c-11.196,10.076 -25.466,16.802 -41.224,18.592l-0,-4.532c14.457,-1.75 27.559,-7.926 37.908,-17.131l3.316,3.071Zm-98.182,-5.038c10.652,10.29 24.565,17.225 40.029,19.097l0,4.532c-16.832,-1.912 -31.967,-9.456 -43.471,-20.699l3.442,-2.93Z" style="fill:#cca43b;"/><path d="M89.397,161.548c-6.016,-6.915 -10.206,-15.459 -11.817,-24.879l3.146,-0c1.556,8.527 5.366,16.272 10.788,22.593l-2.118,2.286Zm2.66,-65.431c-5.711,6.432 -9.723,14.406 -11.33,23.214l-3.146,0c1.667,-9.747 6.095,-18.557 12.45,-25.594l2.026,2.38Zm2.359,-6.689c6.971,-6.076 15.603,-10.295 25.12,-11.883l0,3.144c-8.624,1.535 -16.455,5.374 -22.834,10.856l-2.286,-2.117Zm66.395,3.474c-6.635,-6.206 -15.028,-10.554 -24.347,-12.213l0,-3.144c10.259,1.711 19.489,6.48 26.719,13.337l-2.373,2.02Zm6.575,2.471c5.596,6.747 9.494,14.952 11.034,23.958l-3.146,-0c-1.481,-8.114 -5.002,-15.519 -10.011,-21.664l2.124,-2.293Zm-4.22,65.363c6.124,-6.575 10.428,-14.866 12.108,-24.069l3.146,-0c-1.734,10.143 -6.459,19.27 -13.233,26.442l-2.02,-2.373Zm-2.577,6.68c-6.79,5.622 -15.055,9.524 -24.124,11.037l-0,-3.144c8.177,-1.456 15.642,-4.982 21.831,-10.018l2.294,2.124Zm-64.396,-3.407c6.469,5.719 14.488,9.724 23.343,11.3l0,3.144c-9.794,-1.634 -18.649,-6.054 -25.723,-12.417l2.381,-2.027Z" style="fill:#cca43b;"/><path d="M108.046,143.609c1.118,-1.207 1.604,-2.868 1.313,-4.487c-0.291,-1.619 -1.324,-3.007 -2.792,-3.75c-3.569,-1.654 -7.485,-2.72 -11.626,-2.966l-74.355,-4.407l73.208,-4.339c5.022,-0.298 9.728,-1.753 13.853,-4.105c1.002,-0.593 1.691,-1.599 1.883,-2.748c0.192,-1.149 -0.133,-2.324 -0.888,-3.21c0.032,-0.028 0.032,-0.028 0.032,-0.028l-42.225,-49.596l46.317,44.493c0,0 0.07,0.066 0.07,0.066c0.994,0.914 2.349,1.328 3.684,1.126c1.335,-0.201 2.507,-0.997 3.188,-2.163c2.241,-4.111 3.66,-8.753 3.953,-13.702l4.339,-73.208l4.435,74.822c0.258,4.353 1.439,8.454 3.351,12.109c0.775,1.429 2.153,2.433 3.752,2.731c1.598,0.298 3.246,-0.141 4.484,-1.195c0.058,0.068 0.058,0.068 0.058,0.068l47.865,-41.712l-44.226,47.236c-0,0 -0,0 -0,0c-0.772,0.833 -1.113,1.977 -0.924,3.097c0.189,1.12 0.888,2.088 1.891,2.622c3.618,1.809 7.641,2.948 11.907,3.201l74.822,4.435l-74.133,4.394c-4.546,0.269 -8.824,1.52 -12.625,3.544c-1.409,0.779 -2.395,2.149 -2.684,3.733c-0.289,1.584 0.149,3.214 1.193,4.44c-0.065,0.055 -0.064,0.055 -0.064,0.055l43.134,49.492l-47.505,-44.592c-0,-0 -0,-0 -0,-0c-1.16,-1.075 -2.766,-1.527 -4.317,-1.217c-1.551,0.311 -2.858,1.347 -3.515,2.786c-1.386,3.305 -2.281,6.883 -2.504,10.645l-4.394,74.133l-4.407,-74.355c-0.225,-3.8 -1.142,-7.411 -2.625,-10.708c-0.716,-1.543 -2.112,-2.664 -3.774,-3.028c-1.662,-0.364 -3.398,0.07 -4.694,1.172c-0.055,-0.063 -0.055,-0.062 -0.056,-0.062l-47.293,40.265l42.895,-45.089c0,-0 0,-0 0,-0Zm24.974,-19.423c-2.657,-2.771 -7.064,-2.863 -9.834,-0.206c-2.771,2.657 -2.863,7.064 -0.206,9.834c2.657,2.771 7.064,2.863 9.834,0.206c2.771,-2.657 2.863,-7.064 0.206,-9.834Z" style="fill:#cca43b;"/></svg>